<svg xmlns="http://www.w3.org/2000/svg" xmlns:xlink="http://www.w3.org/1999/xlink" width="151" height="95" viewBox="0 0 151 95"><defs><linearGradient id="linear-gradient" x1="75.5" y1="0.5" x2="75.5" y2="94.5" gradientUnits="userSpaceOnUse"><stop offset="0.6" stop-color="#fff"/><stop offset="1" stop-color="#e8e9e9"/></linearGradient></defs><title>cc-amex</title><g id="Layer_2" data-name="Layer 2"><g id="Amex"><rect x="0.5" y="0.5" width="150" height="94" rx="3" ry="3" style="stroke:#e0e0e0;stroke-miterlimit:10;fill:url(#linear-gradient)"/><g id="Sources"><g id="amex-2" data-name="amex"><rect id="Rectangle-1" x="1.32" y="1" width="148.68" height="93.37" rx="2.24" ry="2.24" style="fill:#0079aa"/><path id="Path" d="M1.32,44.85H8.46L10.07,41h3.61l1.61,3.87H29.33v-3l1.25,3h7.29l1.25-3v3H74.06l0-6.35h.68c.47,0,.61.06.61.84v5.51H93.39V43.37a14.36,14.36,0,0,0,6.7,1.48h7.6L109.32,41h3.61l1.59,3.87h14.64V41.17l2.22,3.67h11.73V20.56H131.49v2.87l-1.63-2.87H118v2.87l-1.49-2.87H100.36a14.51,14.51,0,0,0-7,1.42V20.56H82.28V22a6.9,6.9,0,0,0-4.72-1.42H37l-2.72,6.27-2.8-6.27H18.68v2.87l-1.4-2.87H6.38L1.32,32.11V44.85h0Zm45.08-3.5H42.11l0-13.64L36,41.35H32.37L26.29,27.7V41.35h-8.5l-1.61-3.88H7.48L5.86,41.35H1.32L8.8,23.93H15l7.11,16.49V23.93h6.82l5.47,11.81,5-11.81h7V41.35h0Zm-31.64-7.5-2.86-6.94L9,33.85Zm48.7,7.5h-14V23.93h14v3.63H53.67V30.7h9.55v3.57H53.67v3.48h9.78v3.6ZM83.13,28.62a4.9,4.9,0,0,1-2.95,4.64,4.85,4.85,0,0,1,2.07,1.47,5,5,0,0,1,.69,3.19v3.42H78.73l0-2.2c0-1,.1-2.55-.66-3.39-.61-.61-1.54-.75-3-.75H70.52v6.33H66.34V23.93H76c2.14,0,3.71.06,5.06.83a4.06,4.06,0,0,1,2.12,3.86Zm-5.28,2.59a3.89,3.89,0,0,1-2.07.36H70.7V27.7h5.15a4.3,4.3,0,0,1,2,.31,1.59,1.59,0,0,1,.88,1.54,1.78,1.78,0,0,1-.86,1.66Zm12,10.14H85.57V23.93h4.26V41.35Zm49.51,0h-5.92l-7.92-13.07V41.35H117l-1.63-3.88h-8.68l-1.58,3.88H100.2c-2,0-4.6-.45-6.06-1.93s-2.23-3.48-2.23-6.65c0-2.58.46-4.94,2.25-6.81,1.35-1.39,3.47-2,6.35-2h4v3.73h-4a4,4,0,0,0-3.22,1,5.73,5.73,0,0,0-1.2,3.94,6,6,0,0,0,1.15,4.09,4,4,0,0,0,2.91.9h1.88L108,23.93h6.26l7.08,16.47V23.93h6.36l7.35,12.13V23.93h4.28V41.35Zm-25.41-7.5L111,26.91l-2.88,6.94Z" style="fill:#fff"/><path id="path13" d="M150,69.15c-1,1.48-3,2.23-5.67,2.23h-8.07V67.64h8a2.39,2.39,0,0,0,1.69-.43,1.53,1.53,0,0,0,.49-1.14,1.43,1.43,0,0,0-.51-1.15,2.13,2.13,0,0,0-1.47-.39c-3.92-.13-8.82.12-8.82-5.39,0-2.53,1.61-5.19,6-5.19H150V50.49h-7.74A8.74,8.74,0,0,0,137,51.92V50.49H125.58c-1.83,0-4,.45-5,1.42V50.49H100.16v1.42c-1.63-1.17-4.37-1.42-5.64-1.42H81v1.42c-1.29-1.24-4.15-1.42-5.89-1.42H60.07l-3.45,3.72-3.23-3.72H30.85V74.8H53L56.52,71l3.35,3.78H73.5V69.09h1.34a14.25,14.25,0,0,0,5.82-.85V74.8H91.9V68.46h.54c.69,0,.76,0,.76.72V74.8h34.14A9.77,9.77,0,0,0,133,73.24V74.8h10.83A14.56,14.56,0,0,0,150,73.68V69.15ZM82.29,59.8c0,4.84-3.63,5.84-7.28,5.84H69.8v5.84H61.67l-5.15-5.77-5.35,5.77H34.62V54.06H51.43l5.14,5.71,5.32-5.71H75.25c3.32,0,7,.91,7,5.74Zm-33.23,8H38.78V64.35H48V60.8H38.78V57.63H49.26l4.57,5.08-4.77,5.11Zm16.56,2L59.2,62.72l6.42-6.87v14Zm9.49-7.74h-5.4V57.63h5.45c1.51,0,2.56.61,2.56,2.14s-1,2.3-2.61,2.3Zm28.3-8h14v3.6h-9.79v3.17h9.55v3.55h-9.55v3.47l9.79,0v3.61h-14V54.06ZM98,63.39a4.54,4.54,0,0,1,2,1.46,5.06,5.06,0,0,1,.69,3.18v3.45h-4.2V69.3c0-1,.1-2.6-.68-3.41-.61-.62-1.54-.77-3.07-.77H88.38v6.36h-4.2V54.06h9.65a10.39,10.39,0,0,1,5,.82A4.08,4.08,0,0,1,101,58.75a4.88,4.88,0,0,1-3,4.63Zm-2.36-2.2a4,4,0,0,1-2.06.36H88.54V57.63h5.15a4.13,4.13,0,0,1,2,.31,1.66,1.66,0,0,1,.87,1.57,1.88,1.88,0,0,1-.87,1.67Zm37.73,1.11A4.84,4.84,0,0,1,134.66,66c0,3.75-2.35,5.5-6.57,5.5H120V67.75h8.11a2.46,2.46,0,0,0,1.71-.43,1.54,1.54,0,0,0,.49-1.14,1.49,1.49,0,0,0-.51-1.15,2.21,2.21,0,0,0-1.49-.39c-3.91-.13-8.8.12-8.8-5.39,0-2.53,1.59-5.19,6-5.19h8.38v3.71h-7.67a2.84,2.84,0,0,0-1.67.31,1.46,1.46,0,0,0,.29,2.55,4.82,4.82,0,0,0,1.63.2l2.25.06c2.27.06,3.83.45,4.77,1.4ZM150,57.63h-7.62a2.9,2.9,0,0,0-1.69.31,1.35,1.35,0,0,0-.61,1.25,1.31,1.31,0,0,0,.91,1.3,4.78,4.78,0,0,0,1.61.2l2.27.06c2.29.06,3.81.45,4.74,1.4a2.24,2.24,0,0,1,.39.43v-5Z" style="fill:#fff"/></g></g><rect x="0.5" y="0.5" width="150" height="94" rx="3" ry="3" style="fill:none;stroke:#e0e0e0;stroke-miterlimit:10"/></g></g></svg>